<?xml version="1.0" encoding="UTF-8" standalone="no"?>
<!-- Created with Inkscape (http://www.inkscape.org/) -->

<svg
   xmlns:dc="http://purl.org/dc/elements/1.1/"
   xmlns:cc="http://creativecommons.org/ns#"
   xmlns:rdf="http://www.w3.org/1999/02/22-rdf-syntax-ns#"
   xmlns:svg="http://www.w3.org/2000/svg"
   xmlns="http://www.w3.org/2000/svg"
   xmlns:sodipodi="http://sodipodi.sourceforge.net/DTD/sodipodi-0.dtd"
   xmlns:inkscape="http://www.inkscape.org/namespaces/inkscape"
   width="2000"
   height="400"
   viewBox="0 0 210 297"
   version="1.1"
   id="svg178"
   sodipodi:docname="LogoTransparent.svg"
   inkscape:version="0.92.1 r15371">
  <defs
     id="defs172">
    <linearGradient
       x1="0"
       y1="0"
       x2="1"
       y2="0"
       gradientUnits="userSpaceOnUse"
       gradientTransform="matrix(12.196667,0,0,-12.196667,1660.9912,798.25861)"
       spreadMethod="pad"
       id="linearGradient130">
      <stop
         style="stop-opacity:1;stop-color:#32a2ca"
         offset="0"
         id="stop108" />
      <stop
         style="stop-opacity:1;stop-color:#32a2ca"
         offset="0.0306122"
         id="stop110" />
      <stop
         style="stop-opacity:1;stop-color:#229bc6"
         offset="0.122449"
         id="stop112" />
      <stop
         style="stop-opacity:1;stop-color:#1d99c5"
         offset="0.234694"
         id="stop114" />
      <stop
         style="stop-opacity:1;stop-color:#078fbf"
         offset="0.382653"
         id="stop116" />
      <stop
         style="stop-opacity:1;stop-color:#b0dbeb"
         offset="0.484694"
         id="stop118" />
      <stop
         style="stop-opacity:1;stop-color:#51b0d2"
         offset="0.591837"
         id="stop120" />
      <stop
         style="stop-opacity:1;stop-color:#ffffff"
         offset="0.719388"
         id="stop122" />
      <stop
         style="stop-opacity:1;stop-color:#2fa1c9"
         offset="0.841837"
         id="stop124" />
      <stop
         style="stop-opacity:1;stop-color:#45abcf"
         offset="0.938776"
         id="stop126" />
      <stop
         style="stop-opacity:1;stop-color:#45abcf"
         offset="1"
         id="stop128" />
    </linearGradient>
    <linearGradient
       x1="0"
       y1="0"
       x2="1"
       y2="0"
       gradientUnits="userSpaceOnUse"
       gradientTransform="matrix(93.424675,0,0,-93.424675,1507.8805,800.33453)"
       spreadMethod="pad"
       id="linearGradient92">
      <stop
         style="stop-opacity:1;stop-color:#32a2ca"
         offset="0"
         id="stop70" />
      <stop
         style="stop-opacity:1;stop-color:#32a2ca"
         offset="0.0306122"
         id="stop72" />
      <stop
         style="stop-opacity:1;stop-color:#229bc6"
         offset="0.122449"
         id="stop74" />
      <stop
         style="stop-opacity:1;stop-color:#1d99c5"
         offset="0.234694"
         id="stop76" />
      <stop
         style="stop-opacity:1;stop-color:#078fbf"
         offset="0.382653"
         id="stop78" />
      <stop
         style="stop-opacity:1;stop-color:#b0dbeb"
         offset="0.484694"
         id="stop80" />
      <stop
         style="stop-opacity:1;stop-color:#51b0d2"
         offset="0.591837"
         id="stop82" />
      <stop
         style="stop-opacity:1;stop-color:#ffffff"
         offset="0.719388"
         id="stop84" />
      <stop
         style="stop-opacity:1;stop-color:#2fa1c9"
         offset="0.841837"
         id="stop86" />
      <stop
         style="stop-opacity:1;stop-color:#45abcf"
         offset="0.938776"
         id="stop88" />
      <stop
         style="stop-opacity:1;stop-color:#45abcf"
         offset="1"
         id="stop90" />
    </linearGradient>
    <linearGradient
       x1="0"
       y1="0"
       x2="1"
       y2="0"
       gradientUnits="userSpaceOnUse"
       gradientTransform="matrix(209.31287,0,0,-209.31287,1104.7598,800)"
       spreadMethod="pad"
       id="linearGradient168">
      <stop
         style="stop-opacity:1;stop-color:#32a2ca"
         offset="0"
         id="stop146" />
      <stop
         style="stop-opacity:1;stop-color:#32a2ca"
         offset="0.0306122"
         id="stop148" />
      <stop
         style="stop-opacity:1;stop-color:#229bc6"
         offset="0.122449"
         id="stop150" />
      <stop
         style="stop-opacity:1;stop-color:#1d99c5"
         offset="0.234694"
         id="stop152" />
      <stop
         style="stop-opacity:1;stop-color:#078fbf"
         offset="0.382653"
         id="stop154" />
      <stop
         style="stop-opacity:1;stop-color:#b0dbeb"
         offset="0.484694"
         id="stop156" />
      <stop
         style="stop-opacity:1;stop-color:#51b0d2"
         offset="0.591837"
         id="stop158" />
      <stop
         style="stop-opacity:1;stop-color:#ffffff"
         offset="0.719388"
         id="stop160" />
      <stop
         style="stop-opacity:1;stop-color:#2fa1c9"
         offset="0.841837"
         id="stop162" />
      <stop
         style="stop-opacity:1;stop-color:#45abcf"
         offset="0.938776"
         id="stop164" />
      <stop
         style="stop-opacity:1;stop-color:#45abcf"
         offset="1"
         id="stop166" />
    </linearGradient>
    <clipPath
       clipPathUnits="userSpaceOnUse"
       id="clipPath36">
      <path
         d="M 0,1600 H 2000 V 0 H 0 Z"
         id="path34"
         inkscape:connector-curvature="0" />
    </clipPath>
  </defs>
  <sodipodi:namedview
     id="base"
     pagecolor="#ffffff"
     bordercolor="#666666"
     borderopacity="1.0"
     inkscape:pageopacity="0.0"
     inkscape:pageshadow="2"
     inkscape:zoom="0.98994949"
     inkscape:cx="1050.2373"
     inkscape:cy="-105.50652"
     inkscape:document-units="mm"
     inkscape:current-layer="layer1"
     showgrid="false"
     showguides="false"
     inkscape:window-width="3840"
     inkscape:window-height="2004"
     inkscape:window-x="1916"
     inkscape:window-y="-4"
     inkscape:window-maximized="1" />
  <metadata
     id="metadata175">
    <rdf:RDF>
      <cc:Work
         rdf:about="">
        <dc:format>image/svg+xml</dc:format>
        <dc:type
           rdf:resource="http://purl.org/dc/dcmitype/StillImage" />
        <dc:title></dc:title>
      </cc:Work>
    </rdf:RDF>
  </metadata>
  <g
     inkscape:label="Layer 1"
     inkscape:groupmode="layer"
     id="layer1">
    <g
       id="g22"
       transform="matrix(0.98999998,0,0,-0.98999998,-504.23123,92.78725)">
      <path
         d="M 0,0 H 15.96 L -28.027,-43.987 16.738,-97.836 H 0.26 l -36.851,45.544 -4.931,-4.671 V -97.836 H -53.719 V 0 h 12.197 v -42.43 z"
         style="fill:#ffffff;fill-opacity:1;fill-rule:nonzero;stroke:none"
         id="path24"
         inkscape:connector-curvature="0" />
    </g>
    <path
       d="m -392.98761,115.13888 -17.21313,39.18023 h 34.42626 z m -22.22352,50.22764 -11.04741,24.27876 h -12.97395 l 46.24488,-100.968113 46.24488,100.968113 h -12.97395 l -11.04741,-24.27876 z"
       style="fill:#ffffff;fill-opacity:1;fill-rule:nonzero;stroke:none;stroke-width:0.98999995"
       id="path28"
       inkscape:connector-curvature="0" />
    <g
       transform="matrix(0.98999998,0,0,-0.98999998,-879.96687,931.49205)"
       id="g30">
      <g
         id="g32"
         clip-path="url(#clipPath36)">
        <g
           id="g38"
           transform="translate(610.8829,800.8534)">
          <path
             d="m 0,0 h 3.893 c 3.114,0 6.206,0.195 9.278,0.584 3.069,0.39 5.838,1.233 8.304,2.53 2.465,1.298 4.476,3.114 6.034,5.45 1.556,2.336 2.335,5.45 2.335,9.342 0,3.806 -0.823,6.855 -2.465,9.148 -1.645,2.292 -3.743,4.065 -6.294,5.32 -2.552,1.253 -5.407,2.076 -8.564,2.465 -3.158,0.39 -6.25,0.584 -9.277,0.584 H 0 Z M 48.659,-51.513 H 33.866 L 5.061,-10.121 H 0 V -51.513 H -12.197 V 46.323 H 2.596 c 4.324,0 8.736,-0.217 13.235,-0.649 4.496,-0.434 8.693,-1.731 12.586,-3.892 4.152,-2.423 7.331,-5.754 9.537,-9.991 2.206,-4.24 3.309,-8.694 3.309,-13.365 0,-3.548 -0.564,-6.877 -1.687,-9.992 C 38.451,5.32 36.871,2.551 34.839,0.13 c -2.033,-2.423 -4.498,-4.434 -7.395,-6.034 -2.9,-1.601 -6.121,-2.617 -9.667,-3.049 z"
             style="fill:#ffffff;fill-opacity:1;fill-rule:nonzero;stroke:none"
             id="path40"
             inkscape:connector-curvature="0" />
        </g>
        <g
           id="g42"
           transform="translate(737.6544,813.9588)">
          <path
             d="M 0,0 H -0.26 L -11.678,-64.618 H -24.264 L -4.282,37.37 29.325,-39.705 62.931,37.37 82.914,-64.618 H 70.328 L 58.909,0 h -0.26 L 29.325,-66.694 Z"
             style="fill:#ffffff;fill-opacity:1;fill-rule:nonzero;stroke:none"
             id="path44"
             inkscape:connector-curvature="0" />
        </g>
        <g
           id="g46"
           transform="translate(919.7015,824.5992)">
          <path
             d="M 0,0 -17.387,-39.576 H 17.387 Z M -22.448,-50.735 -33.607,-75.259 H -46.712 L 0,26.729 46.712,-75.259 H 33.607 l -11.159,24.524 z"
             style="fill:#ffffff;fill-opacity:1;fill-rule:nonzero;stroke:none"
             id="path48"
             inkscape:connector-curvature="0" />
        </g>
        <g
           id="g50"
           transform="translate(1038.6857,760.4995)">
          <path
             d="M 0,0 H 29.715 V -11.159 H -12.197 V 86.677 H 0 Z"
             style="fill:#ffffff;fill-opacity:1;fill-rule:nonzero;stroke:none"
             id="path52"
             inkscape:connector-curvature="0" />
        </g>
        <g
           id="g54"
           transform="translate(1371.4706,801.243)">
          <path
             d="m 0,0 h 3.893 c 3.113,0 6.206,0.194 9.277,0.584 3.07,0.389 5.839,1.232 8.304,2.53 2.466,1.297 4.477,3.114 6.034,5.45 1.557,2.335 2.336,5.45 2.336,9.342 0,3.806 -0.824,6.855 -2.465,9.148 -1.645,2.291 -3.743,4.023 -6.294,5.19 -2.552,1.168 -5.407,1.924 -8.564,2.271 -3.158,0.344 -6.25,0.519 -9.278,0.519 H 0 Z M 0,-51.902 H -12.198 V 45.934 H 1.816 c 7.526,0 13.819,-0.629 18.88,-1.882 5.06,-1.255 9.103,-3.094 12.132,-5.514 3.027,-2.423 5.19,-5.385 6.488,-8.889 1.297,-3.503 1.946,-7.505 1.946,-12.002 0,-5.191 -0.909,-9.582 -2.725,-13.171 -1.816,-3.59 -4.281,-6.532 -7.396,-8.823 -3.114,-2.293 -6.748,-3.957 -10.9,-4.996 -4.152,-1.038 -8.564,-1.556 -13.235,-1.556 H 0 Z"
             style="fill:#ffffff;fill-opacity:1;fill-rule:nonzero;stroke:none"
             id="path56"
             inkscape:connector-curvature="0" />
        </g>
      </g>
    </g>
    <g
       transform="matrix(0.98999998,0,0,-0.98999998,-879.96687,931.49205)"
       id="g58">
      <g
         id="g60">
        <g
           id="g66">
          <g
             id="g68">
            <path
               d="m 1507.881,749.341 h 13.105 l 11.16,24.523 h 44.894 l 11.159,-24.523 h 13.106 l -46.712,101.988 z m 46.712,75.258 17.387,-39.576 h -34.774 z"
               style="fill:url(#linearGradient92);stroke:none"
               id="path94"
               inkscape:connector-curvature="0" />
          </g>
        </g>
      </g>
    </g>
    <g
       transform="matrix(0.98999998,0,0,-0.98999998,-879.96687,931.49205)"
       id="g96">
      <g
         id="g98">
        <g
           id="g104">
          <g
             id="g106">
            <path
               d="m 1660.991,749.341 h 12.197 v 97.835 h -12.197 z"
               style="fill:url(#linearGradient130);stroke:none"
               id="path132"
               inkscape:connector-curvature="0" />
          </g>
        </g>
      </g>
    </g>
    <g
       transform="matrix(0.98999998,0,0,-0.98999998,-879.96687,931.49205)"
       id="g134">
      <g
         id="g136">
        <g
           id="g142">
          <g
             id="g144">
            <path
               d="m 1153.111,854.61 c -25.65,-3.755 -50.416,-26.201 -48.215,-59.231 v 0 c 1.749,-26.262 26.508,-49.994 52.78,-50.384 v 0 c 28.622,-0.427 57.148,22.826 56.858,56.512 v 0 c -0.2,23.223 18,41.926 42.862,43.502 v 0 c 21.336,1.353 41.011,-13.279 46.004,-35.378 v 0 c 1.445,-6.399 -0.046,-12.121 -1.337,-18.374 v 0 c -1.298,-6.298 -2.061,-12.315 -6.064,-17.559 v 0 C 1285.55,760.01 1271.9,753.47 1254.629,755.165 v 0 c -14.978,1.47 -26.164,9.142 -34.335,21.876 v 0 c -2.223,-2.064 -4.291,-3.986 -6.909,-6.418 v 0 c 1.283,-1.899 2.214,-3.488 3.347,-4.918 v 0 c 15.964,-20.176 44.706,-26.289 67.519,-14.425 v 0 c 22.48,11.691 35.257,38.043 27.587,63.773 v 0 c -10.617,35.616 -51.744,50.788 -82.711,30.332 v 0 c -9.376,-6.194 -15.628,-14.851 -20.579,-24.94 v 0 c -4.848,-9.882 -2.371,-20.944 -6.49,-31.15 v 0 c -1.661,-4.118 -2.419,-9.11 -4.817,-13.524 v 0 c -7.917,-14.573 -28.399,-24.766 -48.105,-19.821 v 0 c -17.908,4.493 -30.44,17.07 -34.045,38.458 v 0 c -3.053,18.108 7.43,38.772 26.557,47.037 v 0 c 18.364,7.935 39.688,2.796 52.626,-12.8 v 0 c 1.412,-1.702 2.775,-3.446 4.32,-5.368 v 0 c 2.439,2.015 4.477,3.7 6.436,5.319 v 0 c -6.952,15.032 -28.116,26.416 -46.227,26.415 v 0 c -1.938,0 -3.844,-0.13 -5.692,-0.401"
               style="fill:url(#linearGradient168);stroke:none"
               id="path170"
               inkscape:connector-curvature="0" />
          </g>
        </g>
      </g>
    </g>
  </g>
</svg>
